HIERARCHY
ROOT joint_Root
{
	OFFSET 0.0 0.0 0.0
	CHANNELS 6 Xposition Yposition Zposition Zrotation Xrotation Yrotation 
	JOINT Hips
	{
		OFFSET 4.5925 91.4895 -427.239
		CHANNELS 6 Xposition Yposition Zposition Zrotation Xrotation Yrotation 
		JOINT Spine
		{
			OFFSET 15.7357 0.0 0.0
			CHANNELS 6 Xposition Yposition Zposition Zrotation Xrotation Yrotation 
			JOINT Chest
			{
				OFFSET 8.98455 -0.406207 0.0
				CHANNELS 6 Xposition Yposition Zposition Zrotation Xrotation Yrotation 
				JOINT Neck
				{
					OFFSET 16.3773 0.0 0.0
					CHANNELS 6 Xposition Yposition Zposition Zrotation Xrotation Yrotation 
					JOINT Head
					{
						OFFSET 6.45672 0.0 0.0
						CHANNELS 6 Xposition Yposition Zposition Zrotation Xrotation Yrotation 
						End Site
						{
							OFFSET 0.0 0.0 0.0
						}
					}
				}
				JOINT Shoulder_L
				{
					OFFSET 12.9942 -0.242716 4.98039
					CHANNELS 6 Xposition Yposition Zposition Zrotation Xrotation Yrotation 
					JOINT UpperArm_L
					{
						OFFSET 5.34809 0.0 0.0
						CHANNELS 6 Xposition Yposition Zposition Zrotation Xrotation Yrotation 
						JOINT LowerArm_L
						{
							OFFSET 24.3286 1.87007e-05 0.0
							CHANNELS 6 Xposition Yposition Zposition Zrotation Xrotation Yrotation 
							JOINT Hand_L
							{
								OFFSET 22.2916 0.0 0.0
								CHANNELS 6 Xposition Yposition Zposition Zrotation Xrotation Yrotation 
								End Site
								{
									OFFSET 0.0 0.0 0.0
								}
							}
						}
					}
				}
				JOINT Shoulder_R
				{
					OFFSET 12.9945 -0.242716 -4.98039
					CHANNELS 6 Xposition Yposition Zposition Zrotation Xrotation Yrotation 
					JOINT UpperArm_R
					{
						OFFSET -5.34813 0.0 0.0
						CHANNELS 6 Xposition Yposition Zposition Zrotation Xrotation Yrotation 
						JOINT LowerArm_R
						{
							OFFSET -24.3289 0.000322201 0.0
							CHANNELS 6 Xposition Yposition Zposition Zrotation Xrotation Yrotation 
							JOINT Hand_R
							{
								OFFSET -22.2915 -0.000108084 0.0
								CHANNELS 6 Xposition Yposition Zposition Zrotation Xrotation Yrotation 
								End Site
								{
									OFFSET 0.0 0.0 0.0
								}
							}
						}
					}
				}
			}
		}
		JOINT UpperLeg_L
		{
			OFFSET -2.19248 -6.46944 0.0
			CHANNELS 6 Xposition Yposition Zposition Zrotation Xrotation Yrotation 
			JOINT LowerLeg_L
			{
				OFFSET 39.0811 0.0 -1.23785e-05
				CHANNELS 6 Xposition Yposition Zposition Zrotation Xrotation Yrotation 
				JOINT Foot_L
				{
					OFFSET 40.9854 0.0 -1.26872e-05
					CHANNELS 6 Xposition Yposition Zposition Zrotation Xrotation Yrotation 
					JOINT Toes_L
					{
						OFFSET 11.7543 0.0 0.0
						CHANNELS 6 Xposition Yposition Zposition Zrotation Xrotation Yrotation 
						End Site
						{
							OFFSET 0.0 0.0 0.0
						}
					}
				}
			}
		}
		JOINT UpperLeg_R
		{
			OFFSET -2.19251 6.46944 0.0
			CHANNELS 6 Xposition Yposition Zposition Zrotation Xrotation Yrotation 
			JOINT LowerLeg_R
			{
				OFFSET -39.0811 -0.00228153 -0.0401928
				CHANNELS 6 Xposition Yposition Zposition Zrotation Xrotation Yrotation 
				JOINT Foot_R
				{
					OFFSET -40.9854 0.0 0.0
					CHANNELS 6 Xposition Yposition Zposition Zrotation Xrotation Yrotation 
					JOINT Toes_R
					{
						OFFSET -11.7543 0.0 0.0
						CHANNELS 6 Xposition Yposition Zposition Zrotation Xrotation Yrotation 
						End Site
						{
							OFFSET 0.0 0.0 0.0
						}
					}
				}
			}
		}
	}
}
MOTION
Frames:	9
Frame Time:	0.0333333
0.000000 0.000000 0.000000 0.000000 0.000000 -0.000000 -0.586669 90.555300 -0.211969 89.377700 -4.921220 10.639000 15.735700 0.000005 -0.000001 87.150500 80.628700 -87.813800 8.984550 -0.406207 -0.000000 10.949300 -0.943216 -1.235380 16.377300 -0.000001 -0.000001 20.491800 -3.369680 2.170350 6.456720 -0.000001 -0.000000 0.366483 -3.009420 0.568179 12.994200 -0.242716 4.980390 -88.945900 -3.159500 -71.538500 5.348090 -0.000007 -0.000001 -65.869700 -11.239700 -77.389100 24.328600 0.000019 0.000005 44.311700 -3.313230 -93.388000 22.291600 -0.000001 0.000005 23.582700 5.096150 5.201560 12.994500 -0.242716 -4.980390 89.919800 0.360298 -77.446100 -5.348130 -0.000001 -0.000004 -60.141500 -10.628300 -77.417600 -24.328900 0.000322 -0.000009 18.364900 -1.425000 -94.284700 -22.291500 -0.000108 -0.000004 27.123000 5.381130 -2.333950 -2.192480 -6.469440 -0.000000 -174.731000 -13.980500 -0.357111 39.081100 -0.000007 -0.000012 -0.195816 0.308820 32.378200 40.985400 -0.000006 -0.000013 0.703842 4.393870 -71.063000 11.754300 -0.000000 0.000003 -0.000195 -0.001809 -16.645800 -2.192510 6.469440 -0.000001 174.098000 19.325600 -179.081000 -39.081100 -0.002282 -0.040193 -0.198767 0.329893 31.488500 -40.985400 0.000008 0.000006 4.761630 15.379200 -71.757100 -11.754300 -0.000006 -0.000006 -0.002178 -0.030922 -17.830500
0.000000 0.000000 0.000000 0.000000 0.000000 -0.000000 -0.581972 90.561700 -0.198962 89.374300 -4.928830 10.632200 15.735700 0.000005 -0.000001 87.173300 80.627100 -87.841300 8.984550 -0.406207 -0.000000 10.952900 -0.936162 -1.245660 16.377300 -0.000001 -0.000001 20.426000 -3.358100 2.147360 6.456720 -0.000001 -0.000000 0.324558 -2.995310 0.583528 12.994200 -0.242716 4.980390 -88.941300 -3.171580 -71.529500 5.348090 -0.000007 -0.000001 -65.900300 -11.188400 -77.358600 24.328600 0.000019 0.000005 44.323300 -3.344200 -93.418100 22.291600 -0.000001 0.000005 23.565400 5.095050 5.226680 12.994500 -0.242716 -4.980390 89.917100 0.372256 -77.449000 -5.348130 -0.000001 -0.000004 -60.161900 -10.657200 -77.397900 -24.328900 0.000322 -0.000009 18.330700 -1.415440 -94.264600 -22.291500 -0.000108 -0.000004 27.131300 5.383040 -2.394310 -2.192480 -6.469440 -0.000000 -174.734000 -13.937300 -0.341278 39.081100 -0.000007 -0.000012 -0.199846 0.315602 32.343100 40.985400 -0.000006 -0.000013 0.693203 4.370050 -71.052200 11.754300 -0.000000 0.000003 -0.000205 -0.001891 -16.648800 -2.192510 6.469440 -0.000001 174.109000 19.333300 -179.062000 -39.081100 -0.002282 -0.040193 -0.192724 0.320442 31.455400 -40.985400 0.000008 0.000006 4.799830 15.383300 -71.761200 -11.754300 -0.000006 -0.000006 -0.002288 -0.032266 -17.885200
0.000000 0.000000 0.000000 0.000000 0.000000 -0.000000 -0.576486 90.557200 -0.186242 89.377300 -4.938390 10.599400 15.735700 0.000005 -0.000001 87.157100 80.629200 -87.829500 8.984550 -0.406207 -0.000000 10.948400 -0.941306 -1.253880 16.377300 -0.000001 -0.000001 20.369200 -3.355820 2.158520 6.456720 -0.000001 -0.000000 0.220193 -2.970540 0.491603 12.994200 -0.242716 4.980390 -88.942600 -3.170730 -71.546200 5.348090 -0.000007 -0.000001 -65.883100 -11.211800 -77.296900 24.328600 0.000019 0.000005 44.328900 -3.413900 -93.488500 22.291600 -0.000001 0.000005 23.602700 5.094060 5.249230 12.994500 -0.242716 -4.980390 89.918700 0.365365 -77.452400 -5.348130 -0.000001 -0.000004 -60.208400 -10.650600 -77.407800 -24.328900 0.000322 -0.000009 18.374000 -1.415290 -94.253400 -22.291500 -0.000108 -0.000004 27.137900 5.382460 -2.375930 -2.192480 -6.469440 -0.000000 -174.743000 -13.979100 -0.374620 39.081100 -0.000007 -0.000012 -0.196959 0.310817 32.362000 40.985400 -0.000006 -0.000013 0.700664 4.375270 -71.069900 11.754300 -0.000000 0.000003 -0.000201 -0.001863 -16.647800 -2.192510 6.469440 -0.000001 174.108000 19.321800 -179.101000 -39.081100 -0.002282 -0.040193 -0.197127 0.327354 31.477800 -40.985400 0.000008 0.000006 4.806770 15.375600 -71.781400 -11.754300 -0.000006 -0.000006 -0.002295 -0.032347 -17.888500
0.000000 0.000000 0.000000 0.000000 0.000000 -0.000000 -0.572237 90.558300 -0.170054 89.382400 -4.928780 10.560800 15.735700 0.000005 -0.000001 87.116300 80.638100 -87.794200 8.984550 -0.406207 -0.000000 10.929900 -0.953721 -1.263890 16.377300 -0.000001 -0.000001 20.304300 -3.360750 2.111060 6.456720 -0.000001 -0.000000 0.218976 -2.989230 0.495873 12.994200 -0.242716 4.980390 -88.949500 -3.150040 -71.545900 5.348090 -0.000007 -0.000001 -65.793200 -11.214700 -77.262100 24.328600 0.000019 0.000005 44.257900 -3.438730 -93.522400 22.291600 -0.000001 0.000005 23.680100 5.096540 5.192700 12.994500 -0.242716 -4.980390 89.920500 0.356892 -77.448500 -5.348130 -0.000001 -0.000004 -60.213900 -10.635100 -77.422200 -24.328900 0.000322 -0.000009 18.377500 -1.398560 -94.202500 -22.291500 -0.000108 -0.000004 27.317100 5.383260 -2.401180 -2.192480 -6.469440 -0.000000 -174.757000 -14.010300 -0.396259 39.081100 -0.000007 -0.000012 -0.196534 0.310294 32.349600 40.985400 -0.000006 -0.000013 0.711890 4.392670 -71.075600 11.754300 -0.000000 0.000003 -0.000197 -0.001829 -16.646600 -2.192510 6.469440 -0.000001 174.113000 19.316200 -179.131000 -39.081100 -0.002282 -0.040193 -0.196424 0.326278 31.472000 -40.985400 0.000008 0.000006 4.802970 15.357200 -71.786000 -11.754300 -0.000006 -0.000006 -0.002180 -0.030945 -17.831400
0.000000 0.000000 0.000000 0.000000 0.000000 -0.000000 -0.571110 90.560000 -0.158866 89.373500 -4.936040 10.564000 15.735700 0.000005 -0.000001 87.098300 80.636500 -87.777000 8.984550 -0.406207 -0.000000 10.932700 -0.959735 -1.264840 16.377300 -0.000001 -0.000001 20.321200 -3.369460 2.087160 6.456720 -0.000001 -0.000000 0.149512 -3.001230 0.480692 12.994200 -0.242716 4.980390 -88.953900 -3.132780 -71.523300 5.348090 -0.000007 -0.000001 -65.752100 -11.186000 -77.265000 24.328600 0.000019 0.000005 44.232900 -3.425190 -93.511700 22.291600 -0.000001 0.000005 23.648100 5.101080 5.088710 12.994500 -0.242716 -4.980390 89.921200 0.352772 -77.415500 -5.348130 -0.000001 -0.000004 -60.213000 -10.615400 -77.460800 -24.328900 0.000322 -0.000009 18.349400 -1.375960 -94.141600 -22.291500 -0.000108 -0.000004 27.271600 5.383500 -2.408910 -2.192480 -6.469440 -0.000000 -174.745000 -13.989500 -0.376063 39.081100 -0.000007 -0.000012 -0.198134 0.312958 32.338300 40.985400 -0.000006 -0.000013 0.710769 4.402330 -71.081000 11.754300 -0.000000 0.000003 -0.000204 -0.001885 -16.648600 -2.192510 6.469440 -0.000001 174.126000 19.288200 -179.113000 -39.081100 -0.002282 -0.040193 -0.193697 0.321985 31.459300 -40.985400 0.000008 0.000006 4.846600 15.343600 -71.803100 -11.754300 -0.000006 -0.000006 -0.002081 -0.029723 -17.781700
0.000000 0.000000 0.000000 0.000000 0.000000 -0.000000 -0.565232 90.556000 -0.133936 89.366700 -4.960110 10.556600 15.735700 0.000005 -0.000001 87.133200 80.638100 -87.815600 8.984550 -0.406207 -0.000000 10.930100 -0.948359 -1.273390 16.377300 -0.000001 -0.000001 20.307000 -3.362710 2.134780 6.456720 -0.000001 -0.000000 0.202400 -2.991570 0.402563 12.994200 -0.242716 4.980390 -88.954000 -3.132170 -71.522400 5.348090 -0.000007 -0.000001 -65.767500 -11.158500 -77.293400 24.328600 0.000019 0.000005 44.324400 -3.407330 -93.482300 22.291600 -0.000001 0.000005 23.597400 5.096680 5.189570 12.994500 -0.242716 -4.980390 89.924000 0.340330 -77.413700 -5.348130 -0.000001 -0.000004 -60.191700 -10.634700 -77.475800 -24.328900 0.000322 -0.000009 18.391000 -1.356720 -94.074000 -22.291500 -0.000108 -0.000004 27.292000 5.382190 -2.367620 -2.192480 -6.469440 -0.000000 -174.733000 -14.012700 -0.368719 39.081100 -0.000007 -0.000012 -0.198196 0.312890 32.352000 40.985400 -0.000006 -0.000013 0.711207 4.403660 -71.106400 11.754300 -0.000000 0.000003 -0.000199 -0.001844 -16.647100 -2.192510 6.469440 -0.000001 174.129000 19.295800 -179.114000 -39.081100 -0.002282 -0.040193 -0.193873 0.322126 31.470800 -40.985400 0.000008 0.000006 4.853240 15.344500 -71.820600 -11.754300 -0.000006 -0.000006 -0.002092 -0.029860 -17.787300
0.000000 0.000000 0.000000 0.000000 0.000000 -0.000000 -0.567593 90.556700 -0.113741 89.362200 -4.958020 10.577000 15.735700 0.000005 -0.000001 87.119100 80.633800 -87.805900 8.984550 -0.406207 -0.000000 10.938500 -0.953511 -1.281530 16.377300 -0.000001 -0.000001 20.372800 -3.365190 2.118170 6.456720 -0.000001 -0.000000 0.198295 -3.001650 0.426984 12.994200 -0.242716 4.980390 -88.952400 -3.137790 -71.527200 5.348090 -0.000007 -0.000001 -65.780000 -11.144000 -77.295600 24.328600 0.000019 0.000005 44.331800 -3.401210 -93.475200 22.291600 -0.000001 0.000005 23.671500 5.097580 5.169020 12.994500 -0.242716 -4.980390 89.923000 0.344121 -77.392000 -5.348130 -0.000001 -0.000004 -60.168000 -10.632000 -77.480200 -24.328900 0.000322 -0.000009 18.380600 -1.342860 -94.035000 -22.291500 -0.000108 -0.000004 27.246600 5.383430 -2.406610 -2.192480 -6.469440 -0.000000 -174.721000 -14.000700 -0.326471 39.081100 -0.000007 -0.000012 -0.199861 0.315656 32.340700 40.985400 -0.000006 -0.000013 0.702958 4.386500 -71.115300 11.754300 -0.000000 0.000003 -0.000198 -0.001836 -16.646900 -2.192510 6.469440 -0.000001 174.121000 19.308600 -179.063000 -39.081100 -0.002282 -0.040193 -0.189644 0.315365 31.458900 -40.985400 0.000008 0.000006 4.911960 15.371600 -71.852900 -11.754300 -0.000006 -0.000006 -0.001960 -0.028215 -17.720400
0.000000 0.000000 0.000000 0.000000 0.000000 -0.000000 -0.562174 90.552300 -0.102514 89.360500 -4.982540 10.523700 15.735700 0.000005 -0.000001 87.095800 80.645600 -87.791300 8.984550 -0.406207 -0.000000 10.914400 -0.959995 -1.298590 16.377300 -0.000001 -0.000001 20.313100 -3.368280 2.098680 6.456720 -0.000001 -0.000000 0.345966 -2.987760 0.468533 12.994200 -0.242716 4.980390 -88.947100 -3.148910 -71.500500 5.348090 -0.000007 -0.000001 -65.820400 -11.129400 -77.311700 24.328600 0.000019 0.000005 44.280500 -3.427800 -93.508500 22.291600 -0.000001 0.000005 23.622300 5.097360 5.173990 12.994500 -0.242716 -4.980390 89.921100 0.353221 -77.402300 -5.348130 -0.000001 -0.000004 -60.179400 -10.645400 -77.488000 -24.328900 0.000322 -0.000009 18.379500 -1.344950 -94.041500 -22.291500 -0.000108 -0.000004 27.193700 5.383000 -2.392940 -2.192480 -6.469440 -0.000000 -174.744000 -13.993600 -0.388601 39.081100 -0.000007 -0.000012 -0.198028 0.312483 32.363700 40.985400 -0.000006 -0.000013 0.700869 4.356430 -71.132500 11.754300 -0.000000 0.000003 -0.000192 -0.001791 -16.645200 -2.192510 6.469440 -0.000001 174.134000 19.299900 -179.131000 -39.081100 -0.002282 -0.040193 -0.193054 0.320607 31.485300 -40.985400 0.000008 0.000006 4.926340 15.343800 -71.870700 -11.754300 -0.000006 -0.000006 -0.002180 -0.030953 -17.831800
0.000000 0.000000 0.000000 0.000000 0.000000 -0.000000 -0.559173 90.554500 -0.085408 89.347300 -4.985330 10.550600 15.735700 0.000005 -0.000001 87.093300 80.635600 -87.790800 8.984550 -0.406207 -0.000000 10.934200 -0.961954 -1.302130 16.377300 -0.000001 -0.000001 20.373300 -3.371170 2.113370 6.456720 -0.000001 -0.000000 0.310707 -2.991140 0.475192 12.994200 -0.242716 4.980390 -88.956100 -3.117930 -71.477900 5.348090 -0.000007 -0.000001 -65.781000 -11.108700 -77.353200 24.328600 0.000019 0.000005 44.253000 -3.426140 -93.510200 22.291600 -0.000001 0.000005 23.657400 5.099660 5.121290 12.994500 -0.242716 -4.980390 89.922600 0.345563 -77.373800 -5.348130 -0.000001 -0.000004 -60.217300 -10.608900 -77.485600 -24.328900 0.000322 -0.000009 18.343900 -1.338570 -94.030700 -22.291500 -0.000108 -0.000004 27.255900 5.385650 -2.476930 -2.192480 -6.469440 -0.000000 -174.717000 -13.998600 -0.332094 39.081100 -0.000007 -0.000012 -0.202940 0.320428 32.348100 40.985400 -0.000006 -0.000013 0.691772 4.335050 -71.141800 11.754300 -0.000000 0.000003 -0.000195 -0.001809 -16.645900 -2.192510 6.469440 -0.000001 174.155000 19.265500 -179.081000 -39.081100 -0.002282 -0.040193 -0.186217 0.309647 31.468400 -40.985400 0.000008 0.000006 4.989830 15.307000 -71.896400 -11.754300 -0.000006 -0.000006 -0.002089 -0.029822 -17.785700
